<?xml version="1.0" encoding="iso-8859-1"?>
<!-- Uploaded to: SVG Repo, www.svgrepo.com, Generator: SVG Repo Mixer Tools -->
<svg height="800px" width="800px" version="1.1" id="Layer_1" xmlns="http://www.w3.org/2000/svg" xmlns:xlink="http://www.w3.org/1999/xlink" 
	 viewBox="0 0 512 512" xml:space="preserve">
<path style="fill:#FFEA8A;" d="M443.317,34.341H68.683C30.811,34.341,0,65.153,0,103.024v374.634h37.463
	c0-44.758,36.413-81.171,81.171-81.171h324.683c37.872,0,68.683-30.811,68.683-68.683v-224.78
	C512,65.153,481.189,34.341,443.317,34.341z"/>
<path style="fill:#FFDB2D;" d="M443.317,34.341H255.999v362.146h187.318c37.872,0,68.683-30.811,68.683-68.683v-224.78
	C512,65.153,481.189,34.341,443.317,34.341z"/>
<path style="fill:#88888F;" d="M256,84.293c-72.301,0-131.122,58.821-131.122,131.122S183.699,346.537,256,346.537
	c24.998,0,49.313-7.066,70.318-20.434l-20.114-31.605c-14.984,9.536-32.343,14.576-50.203,14.576
	c-51.643,0-93.659-42.015-93.659-93.659s42.015-93.659,93.659-93.659s93.659,42.015,93.659,93.659
	c0,10.329-8.403,18.732-18.732,18.732c-10.329,0-18.732-8.403-18.732-18.732c0-30.986-25.209-56.195-56.195-56.195
	s-56.195,25.209-56.195,56.195S225.014,271.61,256,271.61c14.382,0,27.513-5.437,37.463-14.355
	c9.95,8.919,23.081,14.355,37.463,14.355c30.986,0,56.195-25.209,56.195-56.195C387.122,143.114,328.301,84.293,256,84.293z
	 M256,234.146c-10.329,0-18.732-8.403-18.732-18.732c0-10.329,8.403-18.732,18.732-18.732c10.329,0,18.732,8.403,18.732,18.732
	C274.732,225.743,266.329,234.146,256,234.146z"/>
<g>
	<path style="fill:#56545A;" d="M326.318,326.103l-20.114-31.605c-14.984,9.536-32.343,14.576-50.203,14.576v37.463
		C280.998,346.537,305.313,339.471,326.318,326.103z"/>
	<path style="fill:#56545A;" d="M256,84.293v37.463c51.643,0,93.659,42.015,93.659,93.659c0,10.329-8.403,18.732-18.732,18.732
		c-10.329,0-18.732-8.403-18.732-18.732c0-30.986-25.209-56.195-56.195-56.195v37.463c10.329,0,18.732,8.403,18.732,18.732
		c0,10.329-8.403,18.732-18.732,18.732v37.463c14.382,0,27.513-5.437,37.463-14.355c9.95,8.919,23.081,14.355,37.463,14.355
		c30.986,0,56.195-25.209,56.195-56.195C387.122,143.114,328.301,84.293,256,84.293z"/>
</g>
</svg>