<!DOCTYPE svg PUBLIC "-//W3C//DTD SVG 1.1//EN" "http://www.w3.org/Graphics/SVG/1.1/DTD/svg11.dtd">
<!-- Uploaded to: SVG Repo, www.svgrepo.com, Transformed by: SVG Repo Mixer Tools -->
<svg height="800px" width="800px" version="1.1" id="_x32_" xmlns="http://www.w3.org/2000/svg" xmlns:xlink="http://www.w3.org/1999/xlink" viewBox="0 0 512 512" xml:space="preserve" fill="#000000">
<g id="SVGRepo_bgCarrier" stroke-width="0"/>
<g id="SVGRepo_tracerCarrier" stroke-linecap="round" stroke-linejoin="round"/>
<g id="SVGRepo_iconCarrier"> <style type="text/css"> .st0{fill:#000000;} </style> <g> <path class="st0" d="M430.024,163.39c24.749,0,44.8-20.06,44.8-44.809c0-24.74-20.052-44.8-44.8-44.8 c-24.75,0-44.809,20.06-44.809,44.8C385.215,143.33,405.275,163.39,430.024,163.39z"/> <path class="st0" d="M70.646,163.39h252.705c24.74,0,44.8-20.06,44.8-44.809c0-24.74-20.06-44.8-44.8-44.8H192.517L70.646,95.283 c-18.808,0-34.05,15.25-34.05,34.058C36.597,148.14,51.838,163.39,70.646,163.39z"/> <path class="st0" d="M0,192.621v44.342h136.664l103.114,68.246l-71.933,47.598c5.932,5.51,10.752,12.184,14.059,19.697 l204.814-135.54H512v-44.342H0z M261.686,290.701l-81.198-53.738h162.397L261.686,290.701z"/> <path class="st0" d="M127.173,354.862c-23.013,0-41.666,18.652-41.674,41.674c0.009,23.022,18.662,41.674,41.674,41.683 c23.022-0.009,41.674-18.662,41.674-41.683C168.847,373.514,150.194,354.862,127.173,354.862z M143.814,413.185 c-4.283,4.266-10.112,6.891-16.641,6.891c-6.52,0-12.349-2.624-16.64-6.891c-4.266-4.292-6.882-10.12-6.891-16.649 c0.009-6.529,2.626-12.349,6.891-16.64c4.291-4.275,10.12-6.891,16.64-6.9c6.528,0.009,12.358,2.625,16.641,6.9 c4.274,4.291,6.891,10.111,6.899,16.64C150.705,403.065,148.088,408.893,143.814,413.185z"/> <path class="st0" d="M384.826,354.862c-23.031,0-41.666,18.652-41.674,41.674c0.009,23.022,18.644,41.674,41.674,41.683 c23.022-0.009,41.674-18.662,41.683-41.683C426.501,373.514,407.848,354.862,384.826,354.862z M401.467,413.185 c-4.283,4.266-10.112,6.891-16.641,6.891c-6.529,0-12.357-2.624-16.64-6.891c-4.275-4.292-6.891-10.12-6.891-16.649 c0-6.529,2.616-12.349,6.891-16.64c4.283-4.275,10.111-6.891,16.64-6.9c6.528,0,12.358,2.625,16.641,6.9 c4.274,4.291,6.891,10.111,6.899,16.64C408.358,403.065,405.742,408.893,401.467,413.185z"/> <path class="st0" d="M349.197,348.61l-53.815-35.612l-21.916,14.498l59.497,39.369C337.073,359.715,342.617,353.515,349.197,348.61 z"/> </g> </g>
</svg>